<?xml version="1.0" ?><svg height="400" id="svg" style="display: block;" version="1.1" width="400" xmlns="http://www.w3.org/2000/svg" xmlns:xlink="http://www.w3.org/1999/xlink"><g id="svgg"><path d="" fill="#000000" fill-rule="evenodd" id="path0" stroke="none"/><path d="" fill="#2b2b2b" fill-rule="evenodd" id="path1" stroke="none"/><path d="M183.984 0.433 C 62.571 10.738,-21.356 124.141,4.528 242.920 C 14.064 286.675,37.406 324.579,73.438 354.816 C 99.113 376.362,137.473 393.255,170.703 397.650 C 172.529 397.891,174.435 398.159,174.938 398.244 C 184.548 399.871,215.452 399.871,225.062 398.244 C 225.565 398.159,227.471 397.891,229.297 397.650 C 262.527 393.255,300.887 376.362,326.563 354.816 C 333.699 348.827,340.231 342.748,344.961 337.695 C 350.680 331.585,351.538 330.622,354.525 326.953 C 379.906 295.780,394.089 262.099,399.102 221.094 C 399.982 213.899,400.108 187.124,399.294 180.273 C 387.559 81.435,313.491 8.759,216.016 0.439 C 210.963 0.008,189.046 0.004,183.984 0.433 M211.523 16.806 C 357.080 26.449,434.234 193.736,346.729 309.961 C 265.218 418.225,97.390 403.445,36.245 282.617 C -27.572 156.512,70.703 7.478,211.523 16.806 M128.516 141.443 C 76.120 147.277,66.122 180.157,113.150 191.975 C 158.974 203.491,211.276 183.351,196.289 159.961 C 187.918 146.897,156.539 138.323,128.516 141.443 M149.414 156.319 C 165.189 158.710,172.429 167.568,164.032 174.206 C 150.177 185.157,114.063 180.674,114.063 168.002 C 114.063 159.669,132.126 153.699,149.414 156.319 M206.641 200.194 L 206.641 232.422 210.742 232.422 L 214.844 232.422 214.844 225.391 L 214.844 218.359 216.016 218.359 L 217.188 218.359 217.188 225.391 L 217.188 232.422 223.059 232.422 L 228.931 232.422 228.821 222.160 L 228.711 211.898 229.980 212.046 L 231.250 212.195 231.250 222.308 L 231.250 232.422 236.523 232.422 L 241.797 232.422 241.797 225.391 L 241.797 218.359 243.164 218.359 L 244.531 218.359 244.531 225.391 L 244.531 232.422 251.563 232.422 L 258.594 232.422 258.594 222.308 L 258.594 212.195 259.863 212.046 L 261.133 211.898 261.023 222.160 L 260.913 232.422 267.956 232.422 L 275.000 232.422 275.000 225.391 L 275.000 218.359 276.367 218.359 L 277.734 218.359 277.734 225.391 L 277.734 232.422 283.984 232.422 L 290.234 232.422 290.234 222.266 L 290.234 212.109 291.406 212.109 L 292.578 212.109 292.578 222.266 L 292.578 232.422 299.805 232.422 L 307.031 232.422 307.031 226.953 L 307.031 221.484 308.203 221.484 L 309.375 221.484 309.375 226.953 L 309.375 232.422 313.674 232.422 L 317.973 232.422 317.873 200.293 L 317.773 168.164 262.207 168.065 L 206.641 167.966 206.641 200.194 M198.242 185.208 C 194.993 187.832,188.007 191.760,181.445 194.652 C 152.175 207.549,119.215 205.575,89.894 189.169 C 87.442 187.796,84.873 186.244,84.185 185.720 C 83.497 185.195,82.730 184.766,82.480 184.766 C 82.139 184.766,82.051 191.932,82.126 213.732 L 82.227 242.699 87.891 246.747 L 93.555 250.795 93.750 237.673 L 93.945 224.552 95.605 225.755 L 97.266 226.958 97.266 239.996 C 97.266 252.074,97.316 253.049,97.949 253.241 C 98.325 253.354,100.627 254.166,103.064 255.044 C 105.501 255.922,107.566 256.641,107.653 256.641 C 107.741 256.641,107.813 252.510,107.813 247.461 C 107.813 242.412,107.907 238.281,108.023 238.281 C 108.139 238.281,108.930 238.636,109.781 239.070 L 111.328 239.860 111.328 248.813 C 111.328 253.737,111.471 257.855,111.645 257.962 C 111.977 258.168,118.529 259.513,121.387 259.963 L 123.047 260.225 123.047 247.061 L 123.047 233.897 124.512 234.167 C 126.669 234.563,126.592 234.033,126.475 247.780 C 126.390 257.863,126.472 260.579,126.867 260.730 C 127.142 260.836,130.262 261.041,133.801 261.186 L 140.234 261.449 140.234 252.209 L 140.234 242.969 141.570 242.969 C 144.266 242.969,144.141 242.510,144.141 252.373 L 144.141 261.304 147.363 261.062 C 149.136 260.929,152.168 260.626,154.102 260.390 L 157.617 259.961 157.720 247.014 L 157.823 234.066 158.892 233.812 C 159.480 233.671,160.269 233.465,160.645 233.354 C 161.286 233.163,161.328 233.957,161.328 246.253 L 161.328 259.355 162.570 259.107 C 163.253 258.971,165.670 258.393,167.941 257.823 L 172.070 256.787 172.175 247.609 L 172.279 238.430 174.030 237.580 L 175.781 236.729 175.781 245.904 C 175.781 250.950,175.855 255.078,175.945 255.078 C 176.310 255.078,182.740 252.725,184.473 251.957 L 186.328 251.135 186.336 238.165 L 186.345 225.195 187.864 224.121 C 188.699 223.530,189.486 223.047,189.613 223.047 C 189.740 223.047,189.844 228.749,189.844 235.719 C 189.844 242.689,189.989 248.481,190.167 248.591 C 190.558 248.833,199.182 243.131,199.437 242.463 C 199.535 242.204,199.571 229.003,199.515 213.127 L 199.414 184.261 198.242 185.208 " fill="#353535" fill-rule="evenodd" id="path2" stroke="none"/><path d="" fill="#404040" fill-rule="evenodd" id="path3" stroke="none"/><path d="" fill="#555555" fill-rule="evenodd" id="path4" stroke="none"/></g></svg>