<?xml version="1.0" ?><svg height="400" id="svg" style="display: block;" version="1.1" width="400" xmlns="http://www.w3.org/2000/svg" xmlns:xlink="http://www.w3.org/1999/xlink"><g id="svgg"><path d="M202.730 168.652 L 195.508 175.977 202.832 168.754 C 209.637 162.043,210.333 161.328,210.055 161.328 C 209.999 161.328,206.703 164.624,202.730 168.652 " fill="#000000" fill-rule="evenodd" id="path0" stroke="none"/><path d="M277.729 153.809 L 272.461 159.180 277.832 153.912 C 282.821 149.018,283.380 148.438,283.100 148.438 C 283.043 148.438,280.626 150.854,277.729 153.809 M161.326 210.059 L 149.805 221.680 161.426 210.159 C 167.817 203.822,173.047 198.593,173.047 198.538 C 173.047 198.262,172.032 199.259,161.326 210.059 " fill="#2b2b2b" fill-rule="evenodd" id="path1" stroke="none"/><path d="M183.984 0.431 C 62.305 11.041,-21.365 124.099,4.528 242.920 C 28.108 351.125,136.337 419.394,245.117 394.678 C 324.708 376.594,386.522 309.650,398.005 229.102 C 399.677 217.374,399.805 215.289,399.805 199.805 C 399.805 184.320,399.677 182.236,398.005 170.508 C 383.293 67.309,287.750 -8.617,183.984 0.431 M211.523 16.806 C 325.729 24.372,405.210 132.229,378.328 243.164 C 356.077 334.990,267.230 394.795,173.242 381.212 C 75.172 367.040,5.497 275.743,17.805 177.539 C 29.894 81.085,115.065 10.417,211.523 16.806 M243.750 107.028 C 220.587 112.051,205.382 135.073,210.336 157.617 L 211.023 160.742 159.652 211.914 C 103.759 267.591,106.278 264.886,104.905 270.712 C 101.342 285.827,114.668 299.150,129.663 295.463 C 135.553 294.015,132.506 296.838,188.139 241.290 L 239.363 190.144 240.678 190.569 C 261.964 197.451,286.766 184.111,293.761 162.018 C 295.994 154.967,296.293 141.447,294.287 138.202 C 294.166 138.006,288.641 143.217,282.010 149.782 C 275.379 156.347,269.659 161.719,269.298 161.719 C 268.744 161.719,246.482 155.890,246.187 155.667 C 246.069 155.578,244.203 148.822,241.610 139.089 L 239.795 132.280 252.005 120.065 C 264.046 108.019,264.200 107.845,263.157 107.449 C 259.553 106.079,249.167 105.854,243.750 107.028 M126.397 272.280 C 129.926 273.989,131.524 278.921,129.606 282.189 C 124.990 290.056,113.526 285.661,115.800 276.897 C 116.976 272.363,122.024 270.163,126.397 272.280 " fill="#353535" fill-rule="evenodd" id="path2" stroke="none"/><path d="" fill="#404040" fill-rule="evenodd" id="path3" stroke="none"/><path d="M288.276 143.262 L 283.008 148.633 288.379 143.365 C 293.368 138.471,293.927 137.891,293.647 137.891 C 293.590 137.891,291.173 140.308,288.276 143.262 M184.177 187.207 L 172.852 198.633 184.277 187.307 C 190.562 181.078,195.703 175.937,195.703 175.881 C 195.703 175.605,194.702 176.589,184.177 187.207 " fill="#555555" fill-rule="evenodd" id="path4" stroke="none"/></g></svg>